<?xml version="1.0"?>
<svg width="24" height="24" xmlns="http://www.w3.org/2000/svg" xmlns:svg="http://www.w3.org/2000/svg">
 <title>Cypress</title>
 <g class="layer">
  <title>Layer 1</title>
  <path d="m12,0.02c-0.87,0 -1.68,0.11 -2.15,0.19l0,0c-5.68,1.02 -9.85,5.93 -9.85,11.79c0,1.13 0.16,2.23 0.46,3.3c0.04,0.15 0.1,0.3 0.14,0.45c1.61,4.87 6.23,8.23 11.39,8.23c0.07,0 0.26,0 0.51,-0.01c0.85,-0.04 1.62,-0.57 1.95,-1.37l0.47,-1.15l5.51,-13.41l-1.81,0l-2.32,5.87l-2.33,-5.87l-1.91,0l3.28,8.01c-0.82,1.97 -1.63,3.94 -2.44,5.91c-0.08,0.2 -0.27,0.33 -0.47,0.34c-0.15,0.01 -0.29,0.01 -0.43,0.01c-4.59,0 -8.67,-3.07 -9.93,-7.46a10.31,10.31 0 0 1 -0.4,-2.85c0,-5.09 3.65,-9.34 8.6,-10.16c0.22,-0.04 0.89,-0.15 1.73,-0.15c4.41,0 8.27,2.74 9.73,6.85c0.05,0.14 0.1,0.29 0.14,0.44c0.3,0.98 0.46,1.99 0.46,3.02c0,4.57 -2.94,8.53 -7.32,9.86l0.49,1.6c5.08,-1.54 8.5,-6.15 8.5,-11.46c0,-1.55 -0.3,-2.87 -0.65,-3.89c-0.04,-0.12 -0.09,-0.24 -0.13,-0.36l0,0c-1.76,-4.65 -6.18,-7.73 -11.22,-7.73zm-3.57,7.87c-1.2,0 -2.17,0.39 -2.98,1.18c-0.8,0.78 -1.2,1.77 -1.2,2.93c0,1.16 0.4,2.14 1.2,2.92c0.81,0.79 1.78,1.18 2.98,1.18c1.71,0 3.16,-0.96 3.79,-2.49l0.03,-0.08l-1.62,-0.56c-0.17,0.46 -0.76,1.49 -2.2,1.49c-0.67,0 -1.24,-0.24 -1.69,-0.7c-0.46,-0.47 -0.69,-1.06 -0.69,-1.76c0,-0.7 0.23,-1.28 0.69,-1.77c0.45,-0.47 1.02,-0.7 1.69,-0.7c1.44,0 2.03,1.08 2.2,1.49l1.62,-0.56l-0.03,-0.08c-0.63,-1.54 -2.08,-2.49 -3.79,-2.49z" fill="#ffffff" id="svg_1"/>
 </g>
</svg>